<svg width="49" height="48" viewBox="0 0 49 48" fill="none" xmlns="http://www.w3.org/2000/svg">
<g clip-path="url(#clip0)">
<g filter="url(#filter0_d)">
<circle cx="24.5781" cy="24.5" r="19.5" fill="#583529"/>
</g>
<path d="M24.5781 25C25.2881 25 25.8264 25.2114 26.3781 25.5747C26.1379 26.7443 25.4907 27.2 24.5781 27.2C23.6655 27.2 23.0184 26.7443 22.7781 25.5747C23.3299 25.2114 23.8682 25 24.5781 25Z" fill="white"/>
<path fill-rule="evenodd" clip-rule="evenodd" d="M26.0781 23.5C26.0781 24.3284 25.4067 25 24.5781 25C23.9131 25 23.3496 24.5674 23.1528 23.9684C23.2075 23.9888 23.2666 24 23.3281 24C23.6045 24 23.8281 23.7761 23.8281 23.5C23.8281 23.2239 23.6045 23 23.3281 23C23.2666 23 23.2075 23.0112 23.1528 23.0316C23.3496 22.4326 23.9131 22 24.5781 22C25.4067 22 26.0781 22.6716 26.0781 23.5ZM24.5781 24C24.8545 24 25.0781 23.7761 25.0781 23.5C25.0781 23.2239 24.8545 23 24.5781 23C24.3018 23 24.0781 23.2239 24.0781 23.5C24.0781 23.7761 24.3018 24 24.5781 24Z" fill="white"/>
<path fill-rule="evenodd" clip-rule="evenodd" d="M17.0781 21C17.0781 20.446 17.5239 20 18.0781 20H31.0781C31.6323 20 32.0781 20.446 32.0781 21V28C32.0781 28.554 31.6323 29 31.0781 29H18.0781C17.5239 29 17.0781 28.554 17.0781 28V21ZM19.5781 21H18.0781V22.5C18.0781 22.7761 18.3022 23 18.5781 23C18.854 23 19.0781 22.7761 19.0781 22.5C19.0781 22.2239 18.854 22 18.5781 22L19.0781 21.5C19.0781 21.7761 19.3022 22 19.5781 22C19.854 22 20.0781 21.7761 20.0781 21.5C20.0781 21.2239 19.854 21 19.5781 21ZM27.0781 24.5C27.0781 22.567 25.959 21 24.5781 21C23.1973 21 22.0781 22.567 22.0781 24.5C22.0781 26.433 23.1973 28 24.5781 28C25.959 28 27.0781 26.433 27.0781 24.5ZM31.0781 21H29.5781C29.3022 21 29.0781 21.2239 29.0781 21.5C29.0781 21.7761 29.3022 22 29.5781 22C29.854 22 30.0781 21.7761 30.0781 21.5L30.5781 22C30.3022 22 30.0781 22.2239 30.0781 22.5C30.0781 22.7761 30.3022 23 30.5781 23C30.854 23 31.0781 22.7761 31.0781 22.5V21ZM19.0781 26.5C19.0781 26.2239 18.854 26 18.5781 26C18.3022 26 18.0781 26.2239 18.0781 26.5V28H19.5781C19.854 28 20.0781 27.7761 20.0781 27.5C20.0781 27.2239 19.854 27 19.5781 27C19.3022 27 19.0781 27.2239 19.0781 27.5L18.5781 27C18.854 27 19.0781 26.7761 19.0781 26.5ZM31.0781 26.5C31.0781 26.2239 30.854 26 30.5781 26C30.3022 26 30.0781 26.2239 30.0781 26.5C30.0781 26.7761 30.3022 27 30.5781 27L30.0781 27.5C30.0781 27.2239 29.854 27 29.5781 27C29.3022 27 29.0781 27.2239 29.0781 27.5C29.0781 27.7761 29.3022 28 29.5781 28H31.0781V26.5Z" fill="white"/>
</g>
<defs>
<filter id="filter0_d" x="-2.92188" y="1" width="55" height="55" filterUnits="userSpaceOnUse" color-interpolation-filters="sRGB">
<feFlood flood-opacity="0" result="BackgroundImageFix"/>
<feColorMatrix in="SourceAlpha" type="matrix" values="0 0 0 0 0 0 0 0 0 0 0 0 0 0 0 0 0 0 127 0"/>
<feOffset dy="4"/>
<feGaussianBlur stdDeviation="4"/>
<feColorMatrix type="matrix" values="0 0 0 0 0.048 0 0 0 0 0.141714 0 0 0 0 0.2 0 0 0 0.2 0"/>
<feBlend mode="multiply" in2="BackgroundImageFix" result="effect1_dropShadow"/>
<feBlend mode="normal" in="SourceGraphic" in2="effect1_dropShadow" result="shape"/>
</filter>
<clipPath id="clip0">
<rect width="57" height="57" fill="white" transform="translate(-3.92188 -4)"/>
</clipPath>
</defs>
</svg>
