<svg width="40" height="39" viewBox="0 0 40 39" fill="none" xmlns="http://www.w3.org/2000/svg">
<ellipse cx="19.5781" cy="19.5" rx="19.5" ry="19.5" fill="#02CE9D"/>
<path d="M16.0861 12L15.0861 17.5C14.9397 18.305 16.8676 18.681 16.8361 19.5L16.5861 26C16.5477 26.9993 17.5861 27 17.5861 27C17.5861 27 18.6245 26.9993 18.5861 26L18.3361 19.5C18.3047 18.6824 20.0695 18.3192 20.0861 17.5L19.0861 12H18.5861L18.8361 16L18.0861 16.5L17.8361 12H17.3361L17.0861 16.5L16.3361 16L16.5861 12H16.0861ZM24.5861 12C23.8497 12 22.6219 12.6549 22.131 13.6367C21.7219 14.3731 21.5861 16.0182 21.5861 17V19.5C21.5861 20.3182 22.677 20.5 23.0861 20.5L22.5861 26C22.4956 26.9959 23.5861 27 23.5861 27C23.5861 27 24.5861 27 24.5861 26V12Z" fill="white"/>
</svg>
