<svg width="48" height="48" viewBox="0 0 48 48" fill="none" xmlns="http://www.w3.org/2000/svg">
<g clip-path="url(#clip0)">
<g filter="url(#filter0_d)">
<circle cx="24.5" cy="24.5" r="19.5" fill="#583529"/>
</g>
<path d="M23.9091 16V18.4V20.2V20.8118C20.564 20.9244 18.0025 21.9598 18 23.2V28.6C18 29.9255 20.9101 31 24.5 31C28.0899 31 31 29.9255 31 28.6V23.2C30.9975 21.9598 28.436 20.9244 25.0909 20.8118V19.675L28.6364 18.1L23.9091 16ZM19.1818 24.5758C19.7902 24.8963 20.6017 25.157 21.5455 25.3352V28.8953C20.1211 28.5724 19.1818 28.0239 19.1818 27.4V24.5758ZM29.8182 24.5781V27.4C29.8182 28.0239 28.8789 28.5724 27.4545 28.8953V25.3374C28.3983 25.1594 29.2098 24.8986 29.8182 24.5781ZM22.7273 25.5063C23.3036 25.5676 23.9002 25.599 24.5 25.6C25.0995 25.5999 25.6961 25.5692 26.2727 25.5086V29.0898C25.7157 29.1568 25.1249 29.2 24.5 29.2C23.8751 29.2 23.2843 29.1568 22.7273 29.0898V25.5063Z" fill="white"/>
</g>
<defs>
<filter id="filter0_d" x="-3" y="1" width="55" height="55" filterUnits="userSpaceOnUse" color-interpolation-filters="sRGB">
<feFlood flood-opacity="0" result="BackgroundImageFix"/>
<feColorMatrix in="SourceAlpha" type="matrix" values="0 0 0 0 0 0 0 0 0 0 0 0 0 0 0 0 0 0 127 0"/>
<feOffset dy="4"/>
<feGaussianBlur stdDeviation="4"/>
<feColorMatrix type="matrix" values="0 0 0 0 0.048 0 0 0 0 0.141714 0 0 0 0 0.2 0 0 0 0.2 0"/>
<feBlend mode="multiply" in2="BackgroundImageFix" result="effect1_dropShadow"/>
<feBlend mode="normal" in="SourceGraphic" in2="effect1_dropShadow" result="shape"/>
</filter>
<clipPath id="clip0">
<rect width="57" height="57" fill="white" transform="translate(-4 -4)"/>
</clipPath>
</defs>
</svg>
