<svg width="48" height="48" viewBox="0 0 48 48" fill="none" xmlns="http://www.w3.org/2000/svg">
<g clip-path="url(#clip0)">
<ellipse cx="24.3807" cy="24.5" rx="19.4051" ry="19.5" fill="#FF5000"/>
<path d="M30.0162 23H28.1951L27.807 20.67C27.6477 19.9518 27.1087 19.3795 26.4038 19.18C26.0562 19.0676 25.6942 19.007 25.3291 19H23.1C22.7349 19.007 22.3728 19.0676 22.0252 19.18C21.3204 19.3795 20.7814 19.9518 20.6221 20.67L20.234 23H18.4129C18.1382 22.9983 17.9141 23.2208 17.9124 23.497C17.9121 23.5489 17.9197 23.6005 17.9353 23.65L19.8061 29.95C20.0015 30.5746 20.5776 30.9996 21.2291 31H27.1999C27.8478 30.9953 28.4187 30.5711 28.613 29.95L30.4839 23.65C30.5664 23.3866 30.4207 23.1059 30.1586 23.023C30.1125 23.0084 30.0645 23.0007 30.0162 23ZM21.249 23L21.6073 20.83C21.6876 20.4675 21.9791 20.1905 22.3437 20.13C22.5888 20.0524 22.8432 20.0087 23.1 20H25.3291C25.5892 20.0078 25.8471 20.0515 26.0953 20.13C26.46 20.1905 26.7514 20.4675 26.8317 20.83L27.18 23H21.249Z" fill="white"/>
</g>
<defs>
<clipPath id="clip0">
<rect width="47.7664" height="48" fill="white"/>
</clipPath>
</defs>
</svg>
