<svg width="48" height="48" viewBox="0 0 48 48" fill="none" xmlns="http://www.w3.org/2000/svg">
<circle cx="24.5" cy="24.5" r="19.5" fill="#F2994A"/>
<path d="M21.5594 20C20.731 20 20.0594 19.3284 20.0594 18.5C20.0594 17.6716 20.731 17 21.5594 17C22.3878 17 23.0594 17.6716 23.0594 18.5C23.0594 19.3284 22.3878 20 21.5594 20ZM31.0594 18.5C31.0594 17.6716 30.3878 17 29.5594 17C28.731 17 28.0594 17.6716 28.0594 18.5C28.0594 19.3284 28.731 20 29.5594 20C30.3878 20 31.0594 19.3284 31.0594 18.5ZM25.9194 23.64L23.4394 21.15C23.3392 21.0492 23.2014 20.9949 23.0594 21H20.0594C19.9291 21.0003 19.8039 21.0503 19.7094 21.14L17.1994 23.63C16.9733 23.807 16.9335 24.1339 17.1105 24.36C17.2875 24.5861 17.6144 24.6259 17.8405 24.4489C17.8736 24.423 17.9035 24.3931 17.9294 24.36L20.0594 22.2L18.0594 28H20.0594V31.33C20.0519 31.3797 20.0519 31.4303 20.0594 31.48C20.1149 31.7561 20.3838 31.935 20.6599 31.8795C20.8614 31.839 21.0189 31.6815 21.0594 31.48V28H22.0594V31.5C22.1149 31.7761 22.3838 31.955 22.6599 31.8995C22.8614 31.859 23.0189 31.7015 23.0594 31.5C23.0669 31.4503 23.0669 31.3997 23.0594 31.35V28H25.0594L23.0594 22.2L25.1994 24.36C25.2961 24.4681 25.4344 24.53 25.5794 24.53C25.8548 24.5088 26.0655 24.2761 26.0594 24C26.0617 23.8663 26.0115 23.737 25.9194 23.64ZM31.5594 21H27.5594C27.2833 21 27.0594 21.2239 27.0594 21.5V26.5C27.0594 26.7761 27.2833 27 27.5594 27C27.8355 27 28.0594 26.7761 28.0594 26.5V31.5C28.0594 31.7761 28.2833 32 28.5594 32C28.8355 32 29.0594 31.7761 29.0594 31.5V26.5H30.0594V31.5C30.0594 31.7761 30.2833 32 30.5594 32C30.8355 32 31.0594 31.7761 31.0594 31.5V26.5C31.0594 26.7761 31.2833 27 31.5594 27C31.8355 27 32.0594 26.7761 32.0594 26.5V21.5C32.0594 21.2239 31.8355 21 31.5594 21Z" fill="white"/>
</svg>
